# This file uses centimeters as units for non-parametric coordinates.

mtllib coin.mtl
g default
v 0.131783 -0.335774 -1.033406
v 0.131783 -0.638680 -0.879068
v 0.131783 -0.879068 -0.638680
v 0.131783 -1.033406 -0.335774
v 0.131783 -1.086588 -0.000000
v 0.131783 -1.033406 0.335774
v 0.131783 -0.879068 0.638680
v 0.131783 -0.638680 0.879068
v 0.131783 -0.335774 1.033406
v 0.131783 0.000000 1.086587
v 0.131783 0.335774 1.033406
v 0.131783 0.638680 0.879068
v 0.131783 0.879068 0.638680
v 0.131783 1.033406 0.335774
v 0.131783 1.086587 0.000000
v 0.131783 1.033406 -0.335774
v 0.131783 0.879068 -0.638680
v 0.131783 0.638680 -0.879067
v 0.131783 0.335774 -1.033406
v 0.131783 0.000000 -1.086587
v -0.131783 -0.335774 -1.033406
v -0.131783 -0.638680 -0.879068
v -0.131783 -0.879068 -0.638680
v -0.131783 -1.033406 -0.335774
v -0.131783 -1.086588 -0.000000
v -0.131783 -1.033406 0.335774
v -0.131783 -0.879068 0.638680
v -0.131783 -0.638680 0.879068
v -0.131783 -0.335774 1.033406
v -0.131783 0.000000 1.086587
v -0.131783 0.335774 1.033406
v -0.131783 0.638680 0.879068
v -0.131783 0.879068 0.638680
v -0.131783 1.033406 0.335774
v -0.131783 1.086587 0.000000
v -0.131783 1.033406 -0.335774
v -0.131783 0.879068 -0.638680
v -0.131783 0.638680 -0.879067
v -0.131783 0.335774 -1.033406
v -0.131783 0.000000 -1.086587
v 0.085262 0.000000 -1.021647
v 0.085262 -0.315706 -0.971645
v 0.085262 0.315706 -0.971644
v 0.085262 0.600509 -0.826530
v 0.085262 0.826530 -0.600509
v 0.085262 0.971644 -0.315706
v 0.085262 1.021647 0.000000
v 0.085262 0.971644 0.315706
v 0.085262 0.826530 0.600509
v 0.085262 0.600509 0.826530
v 0.085262 0.315706 0.971644
v 0.085262 0.000000 1.021647
v 0.085262 -0.315706 0.971644
v 0.085262 -0.600509 0.826530
v 0.085262 -0.826530 0.600509
v 0.085262 -0.971644 0.315706
v 0.085262 -1.021647 -0.000000
v 0.085262 -0.971644 -0.315706
v 0.085262 -0.826530 -0.600509
v 0.085262 -0.600509 -0.826530
v -0.085262 -0.315706 -0.971645
v -0.085262 -0.600509 -0.826530
v -0.085262 -0.826530 -0.600509
v -0.085262 -0.971644 -0.315706
v -0.085262 -1.021647 -0.000000
v -0.085262 -0.971644 0.315706
v -0.085262 -0.826530 0.600509
v -0.085262 -0.600509 0.826530
v -0.085262 -0.315706 0.971644
v -0.085262 0.000000 1.021647
v -0.085262 0.315706 0.971644
v -0.085262 0.600509 0.826530
v -0.085262 0.826530 0.600509
v -0.085262 0.971644 0.315706
v -0.085262 1.021647 0.000000
v -0.085262 0.971644 -0.315706
v -0.085262 0.826530 -0.600509
v -0.085262 0.600509 -0.826530
v -0.085262 0.315706 -0.971644
v -0.085262 0.000000 -1.021647
vt 0.648603 0.107966
vt 0.626409 0.064408
vt 0.591842 0.029841
vt 0.548284 0.007647
vt 0.500000 -0.000000
vt 0.451716 0.007647
vt 0.408159 0.029841
vt 0.373591 0.064409
vt 0.351397 0.107966
vt 0.343750 0.156250
vt 0.351397 0.204534
vt 0.373591 0.248091
vt 0.408159 0.282659
vt 0.451716 0.304853
vt 0.500000 0.312500
vt 0.548284 0.304853
vt 0.591841 0.282659
vt 0.626409 0.248091
vt 0.648603 0.204534
vt 0.656250 0.156250
vt 0.375000 0.312500
vt 0.387500 0.312500
vt 0.400000 0.312500
vt 0.412500 0.312500
vt 0.425000 0.312500
vt 0.437500 0.312500
vt 0.450000 0.312500
vt 0.462500 0.312500
vt 0.475000 0.312500
vt 0.487500 0.312500
vt 0.500000 0.312500
vt 0.512500 0.312500
vt 0.525000 0.312500
vt 0.537500 0.312500
vt 0.550000 0.312500
vt 0.562500 0.312500
vt 0.575000 0.312500
vt 0.587500 0.312500
vt 0.600000 0.312500
vt 0.612500 0.312500
vt 0.625000 0.312500
vt 0.375000 0.688440
vt 0.387500 0.688440
vt 0.400000 0.688440
vt 0.412500 0.688440
vt 0.425000 0.688440
vt 0.437500 0.688440
vt 0.450000 0.688440
vt 0.462500 0.688440
vt 0.475000 0.688440
vt 0.487500 0.688440
vt 0.500000 0.688440
vt 0.512500 0.688440
vt 0.525000 0.688440
vt 0.537500 0.688440
vt 0.550000 0.688440
vt 0.562500 0.688440
vt 0.575000 0.688440
vt 0.587500 0.688440
vt 0.600000 0.688440
vt 0.612500 0.688440
vt 0.625000 0.688440
vt 0.648603 0.795466
vt 0.626409 0.751908
vt 0.591842 0.717341
vt 0.548284 0.695147
vt 0.500000 0.687500
vt 0.451716 0.695147
vt 0.408159 0.717341
vt 0.373591 0.751909
vt 0.351397 0.795466
vt 0.343750 0.843750
vt 0.351397 0.892034
vt 0.373591 0.935591
vt 0.408159 0.970159
vt 0.451716 0.992353
vt 0.500000 1.000000
vt 0.548284 0.992353
vt 0.591841 0.970159
vt 0.626409 0.935591
vt 0.648603 0.892034
vt 0.656250 0.843750
vt 0.648603 0.107966
vt 0.656250 0.156250
vt 0.648603 0.204534
vt 0.626409 0.248091
vt 0.591841 0.282659
vt 0.548284 0.304853
vt 0.500000 0.312500
vt 0.451716 0.304853
vt 0.408159 0.282659
vt 0.373591 0.248091
vt 0.351397 0.204534
vt 0.343750 0.156250
vt 0.351397 0.107966
vt 0.373591 0.064409
vt 0.408159 0.029841
vt 0.451716 0.007647
vt 0.500000 -0.000000
vt 0.548284 0.007647
vt 0.591842 0.029841
vt 0.626409 0.064408
vt 0.648603 0.892034
vt 0.626409 0.935591
vt 0.591841 0.970159
vt 0.548284 0.992353
vt 0.500000 1.000000
vt 0.451716 0.992353
vt 0.408159 0.970159
vt 0.373591 0.935591
vt 0.351397 0.892034
vt 0.343750 0.843750
vt 0.351397 0.795466
vt 0.373591 0.751909
vt 0.408159 0.717341
vt 0.451716 0.695147
vt 0.500000 0.687500
vt 0.548284 0.695147
vt 0.591842 0.717341
vt 0.626409 0.751908
vt 0.648603 0.795466
vt 0.656250 0.843750
vn 0.000000 -0.309016 -0.951057
vn 0.000000 -0.587785 -0.809017
vn 0.000000 -0.587785 -0.809017
vn 0.000000 -0.309016 -0.951057
vn 0.000000 -0.809017 -0.587785
vn 0.000000 -0.809017 -0.587785
vn 0.000000 -0.951057 -0.309017
vn 0.000000 -0.951057 -0.309017
vn 0.000000 -1.000000 -0.000000
vn 0.000000 -1.000000 -0.000000
vn -0.000000 -0.951056 0.309017
vn -0.000000 -0.951056 0.309017
vn -0.000000 -0.809017 0.587786
vn -0.000000 -0.809017 0.587786
vn -0.000000 -0.587785 0.809017
vn -0.000000 -0.587785 0.809017
vn -0.000000 -0.309017 0.951057
vn -0.000000 -0.309017 0.951057
vn -0.000000 -0.000000 1.000000
vn -0.000000 -0.000000 1.000000
vn 0.000000 0.309017 0.951057
vn 0.000000 0.309017 0.951057
vn 0.000000 0.587785 0.809017
vn 0.000000 0.587785 0.809017
vn 0.000000 0.809017 0.587785
vn 0.000000 0.809017 0.587785
vn 0.000000 0.951057 0.309017
vn 0.000000 0.951057 0.309017
vn 0.000000 1.000000 0.000000
vn 0.000000 1.000000 0.000000
vn 0.000000 0.951057 -0.309017
vn 0.000000 0.951057 -0.309017
vn 0.000000 0.809017 -0.587785
vn 0.000000 0.809017 -0.587785
vn 0.000000 0.587785 -0.809017
vn 0.000000 0.587785 -0.809017
vn 0.000000 0.309017 -0.951057
vn 0.000000 0.309017 -0.951057
vn 0.000000 0.000001 -1.000000
vn 0.000000 0.000001 -1.000000
vn 1.000000 -0.000000 0.000000
vn 1.000000 -0.000000 0.000000
vn 1.000000 -0.000000 0.000000
vn 1.000000 -0.000000 0.000000
vn 1.000000 -0.000000 0.000000
vn 1.000000 -0.000000 0.000000
vn 1.000000 -0.000000 0.000000
vn 1.000000 -0.000000 0.000000
vn 1.000000 -0.000000 0.000000
vn 1.000000 -0.000000 0.000000
vn 1.000000 -0.000000 0.000000
vn 1.000000 -0.000000 0.000000
vn 1.000000 -0.000000 0.000000
vn 1.000000 -0.000000 0.000000
vn 1.000000 -0.000000 0.000000
vn 1.000000 -0.000000 0.000000
vn 1.000000 -0.000000 0.000000
vn 1.000000 -0.000000 0.000000
vn 1.000000 -0.000000 0.000000
vn 1.000000 -0.000000 0.000000
vn -1.000000 -0.000000 -0.000000
vn -1.000000 -0.000000 -0.000000
vn -1.000000 -0.000000 -0.000000
vn -1.000000 -0.000000 -0.000000
vn -1.000000 -0.000000 -0.000000
vn -1.000000 -0.000000 -0.000000
vn -1.000000 -0.000000 -0.000000
vn -1.000000 -0.000000 -0.000000
vn -1.000000 -0.000000 -0.000000
vn -1.000000 -0.000000 -0.000000
vn -1.000000 -0.000000 -0.000000
vn -1.000000 -0.000000 -0.000000
vn -1.000000 -0.000000 -0.000000
vn -1.000000 -0.000000 -0.000000
vn -1.000000 -0.000000 -0.000000
vn -1.000000 -0.000000 -0.000000
vn -1.000000 -0.000000 -0.000000
vn -1.000000 -0.000000 -0.000000
vn -1.000000 -0.000000 -0.000000
vn -1.000000 -0.000000 -0.000000
vn 0.809493 0.091846 0.579901
vn 0.809493 0.091846 0.579901
vn 0.809493 0.091846 0.579901
vn 0.809493 0.091846 0.579901
vn 0.809493 -0.091848 0.579901
vn 0.809493 -0.091848 0.579901
vn 0.809493 -0.091848 0.579901
vn 0.809493 -0.091848 0.579901
vn 0.809493 -0.266551 0.523136
vn 0.809493 -0.266551 0.523136
vn 0.809493 -0.266551 0.523136
vn 0.809493 -0.266551 0.523136
vn 0.809493 -0.415164 0.415164
vn 0.809493 -0.415164 0.415164
vn 0.809493 -0.415163 0.415163
vn 0.809493 -0.415163 0.415163
vn 0.809493 -0.523136 0.266551
vn 0.809493 -0.523136 0.266551
vn 0.809493 -0.523136 0.266551
vn 0.809493 -0.523136 0.266551
vn 0.809493 -0.579901 0.091848
vn 0.809493 -0.579901 0.091848
vn 0.809493 -0.579901 0.091848
vn 0.809493 -0.579901 0.091848
vn 0.809493 -0.579901 -0.091848
vn 0.809493 -0.579901 -0.091848
vn 0.809493 -0.579901 -0.091848
vn 0.809493 -0.579901 -0.091848
vn 0.809493 -0.523137 -0.266551
vn 0.809493 -0.523137 -0.266551
vn 0.809493 -0.523136 -0.266551
vn 0.809493 -0.523136 -0.266551
vn 0.809493 -0.415163 -0.415163
vn 0.809493 -0.415163 -0.415163
vn 0.809493 -0.415163 -0.415163
vn 0.809493 -0.415163 -0.415163
vn 0.809493 -0.266551 -0.523137
vn 0.809493 -0.266551 -0.523137
vn 0.809493 -0.266551 -0.523137
vn 0.809493 -0.266551 -0.523137
vn 0.809492 -0.091848 -0.579902
vn 0.809492 -0.091848 -0.579902
vn 0.809492 -0.091848 -0.579902
vn 0.809492 -0.091848 -0.579902
vn 0.809493 0.091847 -0.579901
vn 0.809493 0.091847 -0.579901
vn 0.809493 0.091847 -0.579901
vn 0.809493 0.091847 -0.579901
vn 0.809493 0.266551 -0.523137
vn 0.809493 0.266551 -0.523137
vn 0.809493 0.266551 -0.523137
vn 0.809493 0.266551 -0.523137
vn 0.809493 0.415163 -0.415163
vn 0.809493 0.415163 -0.415163
vn 0.809493 0.415163 -0.415163
vn 0.809493 0.415163 -0.415163
vn 0.809493 0.523136 -0.266552
vn 0.809493 0.523136 -0.266552
vn 0.809493 0.523136 -0.266552
vn 0.809493 0.523136 -0.266552
vn 0.809493 0.579901 -0.091847
vn 0.809493 0.579901 -0.091847
vn 0.809493 0.579901 -0.091847
vn 0.809493 0.579901 -0.091847
vn 0.809493 0.579901 0.091847
vn 0.809493 0.579901 0.091847
vn 0.809493 0.579901 0.091847
vn 0.809493 0.579901 0.091847
vn 0.809493 0.523136 0.266551
vn 0.809493 0.523136 0.266551
vn 0.809493 0.523136 0.266551
vn 0.809493 0.523136 0.266551
vn 0.809493 0.415163 0.415163
vn 0.809493 0.415163 0.415163
vn 0.809493 0.415163 0.415163
vn 0.809493 0.415163 0.415163
vn 0.809493 0.266551 0.523136
vn 0.809493 0.266551 0.523136
vn 0.809493 0.266551 0.523136
vn 0.809494 0.266551 0.523136
vn -0.809493 0.266551 0.523136
vn -0.809493 0.266551 0.523136
vn -0.809493 0.266551 0.523136
vn -0.809493 0.266551 0.523136
vn -0.809493 0.415163 0.415163
vn -0.809493 0.415163 0.415163
vn -0.809493 0.415163 0.415163
vn -0.809493 0.415163 0.415163
vn -0.809493 0.523136 0.266551
vn -0.809493 0.523136 0.266551
vn -0.809493 0.523136 0.266551
vn -0.809493 0.523136 0.266551
vn -0.809493 0.579901 0.091847
vn -0.809493 0.579901 0.091847
vn -0.809493 0.579901 0.091847
vn -0.809493 0.579901 0.091847
vn -0.809493 0.579901 -0.091847
vn -0.809493 0.579901 -0.091847
vn -0.809493 0.579901 -0.091847
vn -0.809493 0.579901 -0.091847
vn -0.809493 0.523136 -0.266552
vn -0.809493 0.523136 -0.266552
vn -0.809493 0.523136 -0.266552
vn -0.809493 0.523136 -0.266552
vn -0.809493 0.415163 -0.415163
vn -0.809493 0.415163 -0.415163
vn -0.809493 0.415163 -0.415163
vn -0.809493 0.415163 -0.415163
vn -0.809493 0.266551 -0.523137
vn -0.809493 0.266551 -0.523137
vn -0.809493 0.266551 -0.523137
vn -0.809493 0.266551 -0.523137
vn -0.809493 0.091847 -0.579901
vn -0.809493 0.091847 -0.579901
vn -0.809493 0.091847 -0.579901
vn -0.809493 0.091847 -0.579901
vn -0.809493 -0.091848 -0.579901
vn -0.809493 -0.091848 -0.579901
vn -0.809493 -0.091848 -0.579901
vn -0.809493 -0.091848 -0.579901
vn -0.809493 -0.266551 -0.523137
vn -0.809493 -0.266551 -0.523137
vn -0.809493 -0.266551 -0.523137
vn -0.809493 -0.266551 -0.523137
vn -0.809493 -0.415163 -0.415163
vn -0.809493 -0.415163 -0.415163
vn -0.809493 -0.415163 -0.415163
vn -0.809493 -0.415163 -0.415163
vn -0.809493 -0.523136 -0.266551
vn -0.809493 -0.523136 -0.266551
vn -0.809493 -0.523136 -0.266551
vn -0.809493 -0.523136 -0.266551
vn -0.809493 -0.579901 -0.091848
vn -0.809493 -0.579901 -0.091848
vn -0.809493 -0.579901 -0.091848
vn -0.809493 -0.579901 -0.091848
vn -0.809493 -0.579901 0.091848
vn -0.809493 -0.579901 0.091848
vn -0.809493 -0.579901 0.091848
vn -0.809493 -0.579901 0.091848
vn -0.809493 -0.523136 0.266551
vn -0.809493 -0.523136 0.266551
vn -0.809493 -0.523136 0.266551
vn -0.809493 -0.523136 0.266551
vn -0.809493 -0.415163 0.415163
vn -0.809493 -0.415163 0.415163
vn -0.809493 -0.415163 0.415163
vn -0.809493 -0.415163 0.415163
vn -0.809493 -0.266551 0.523136
vn -0.809493 -0.266551 0.523136
vn -0.809493 -0.266551 0.523136
vn -0.809493 -0.266551 0.523136
vn -0.809492 -0.091848 0.579902
vn -0.809492 -0.091848 0.579902
vn -0.809492 -0.091848 0.579902
vn -0.809492 -0.091848 0.579902
vn -0.809493 0.091846 0.579902
vn -0.809493 0.091846 0.579902
vn -0.809493 0.091846 0.579902
vn -0.809493 0.091846 0.579902
s 1
g pCylinder1
usemtl initialShadingGroup
f 1/21/1 2/22/2 22/43/3 21/42/4
f 2/22/2 3/23/5 23/44/6 22/43/3
f 3/23/5 4/24/7 24/45/8 23/44/6
f 4/24/7 5/25/9 25/46/10 24/45/8
f 5/25/9 6/26/11 26/47/12 25/46/10
f 6/26/11 7/27/13 27/48/14 26/47/12
f 7/27/13 8/28/15 28/49/16 27/48/14
f 8/28/15 9/29/17 29/50/18 28/49/16
f 9/29/17 10/30/19 30/51/20 29/50/18
f 10/30/19 11/31/21 31/52/22 30/51/20
f 11/31/21 12/32/23 32/53/24 31/52/22
f 12/32/23 13/33/25 33/54/26 32/53/24
f 13/33/25 14/34/27 34/55/28 33/54/26
f 14/34/27 15/35/29 35/56/30 34/55/28
f 15/35/29 16/36/31 36/57/32 35/56/30
f 16/36/31 17/37/33 37/58/34 36/57/32
f 17/37/33 18/38/35 38/59/36 37/58/34
f 18/38/35 19/39/37 39/60/38 38/59/36
f 19/39/37 20/40/39 40/61/40 39/60/38
f 20/40/39 1/41/1 21/62/4 40/61/40
s off
f 42/83/41 41/84/42 43/85/43 44/86/44 45/87/45 46/88/46 47/89/47 48/90/48 49/91/49 50/92/50 51/93/51 52/94/52 53/95/53 54/96/54 55/97/55 56/98/56 57/99/57 58/100/58 59/101/59 60/102/60
f 61/103/61 62/104/62 63/105/63 64/106/64 65/107/65 66/108/66 67/109/67 68/110/68 69/111/69 70/112/70 71/113/71 72/114/72 73/115/73 74/116/74 75/117/75 76/118/76 77/119/77 78/120/78 79/121/79 80/122/80
f 1/1/81 20/20/82 41/84/83 42/83/84
f 20/20/85 19/19/86 43/85/87 41/84/88
f 19/19/89 18/18/90 44/86/91 43/85/92
f 18/18/93 17/17/94 45/87/95 44/86/96
f 17/17/97 16/16/98 46/88/99 45/87/100
f 16/16/101 15/15/102 47/89/103 46/88/104
f 15/15/105 14/14/106 48/90/107 47/89/108
f 14/14/109 13/13/110 49/91/111 48/90/112
f 13/13/113 12/12/114 50/92/115 49/91/116
f 12/12/117 11/11/118 51/93/119 50/92/120
f 11/11/121 10/10/122 52/94/123 51/93/124
f 10/10/125 9/9/126 53/95/127 52/94/128
f 9/9/129 8/8/130 54/96/131 53/95/132
f 8/8/133 7/7/134 55/97/135 54/96/136
f 7/7/137 6/6/138 56/98/139 55/97/140
f 6/6/141 5/5/142 57/99/143 56/98/144
f 5/5/145 4/4/146 58/100/147 57/99/148
f 4/4/149 3/3/150 59/101/151 58/100/152
f 3/3/153 2/2/154 60/102/155 59/101/156
f 2/2/157 1/1/158 42/83/159 60/102/160
f 21/81/161 22/80/162 62/104/163 61/103/164
f 22/80/165 23/79/166 63/105/167 62/104/168
f 23/79/169 24/78/170 64/106/171 63/105/172
f 24/78/173 25/77/174 65/107/175 64/106/176
f 25/77/177 26/76/178 66/108/179 65/107/180
f 26/76/181 27/75/182 67/109/183 66/108/184
f 27/75/185 28/74/186 68/110/187 67/109/188
f 28/74/189 29/73/190 69/111/191 68/110/192
f 29/73/193 30/72/194 70/112/195 69/111/196
f 30/72/197 31/71/198 71/113/199 70/112/200
f 31/71/201 32/70/202 72/114/203 71/113/204
f 32/70/205 33/69/206 73/115/207 72/114/208
f 33/69/209 34/68/210 74/116/211 73/115/212
f 34/68/213 35/67/214 75/117/215 74/116/216
f 35/67/217 36/66/218 76/118/219 75/117/220
f 36/66/221 37/65/222 77/119/223 76/118/224
f 37/65/225 38/64/226 78/120/227 77/119/228
f 38/64/229 39/63/230 79/121/231 78/120/232
f 39/63/233 40/82/234 80/122/235 79/121/236
f 40/82/237 21/81/238 61/103/239 80/122/240
